PathFileType	4	(X/Y/Z)	C:/Users/opensim2020/Desktop/walking_exp_matlab/subject06_walking18_straight_04.trc																																																																																																																																											
DataRate	CameraRate	NumFrames	NumMarkers	Units	OrigDataRate	OrigDataStartFrame	OrigNumFrames																																																																																																																																							
100	100	6	47	mm	100	4725	409																																																																																																																																							
Frame#	Time	LFHD			RFHD			LBHD			RBHD			C7			T10			CLAV			STRN			RBAK			LSHO			LUPA			LELB			LFRM			LWRA			LWRB			LFIN			RSHO			RUPA			RELB			RFRM			RWRA			RWRB			RFIN			LASI			RASI			LPSI			RPSI			LTHI			LKNE			LTIB			LANK			LHEE			LTOE			RTHI			RKNE			RTIB			RANK			RHEE			RTOE			*39			*40			*41			*42			*43			*44			*45			*46		
		X1	Y1	Z1	X2	Y2	Z2	X3	Y3	Z3	X4	Y4	Z4	X5	Y5	Z5	X6	Y6	Z6	X7	Y7	Z7	X8	Y8	Z8	X9	Y9	Z9	X10	Y10	Z10	X11	Y11	Z11	X12	Y12	Z12	X13	Y13	Z13	X14	Y14	Z14	X15	Y15	Z15	X16	Y16	Z16	X17	Y17	Z17	X18	Y18	Z18	X19	Y19	Z19	X20	Y20	Z20	X21	Y21	Z21	X22	Y22	Z22	X23	Y23	Z23	X24	Y24	Z24	X25	Y25	Z25	X26	Y26	Z26	X27	Y27	Z27	X28	Y28	Z28	X29	Y29	Z29	X30	Y30	Z30	X31	Y31	Z31	X32	Y32	Z32	X33	Y33	Z33	X34	Y34	Z34	X35	Y35	Z35	X36	Y36	Z36	X37	Y37	Z37	X38	Y38	Z38	X39	Y39	Z39	X40	Y40	Z40	X41	Y41	Z41	X42	Y42	Z42	X43	Y43	Z43	X44	Y44	Z44	X45	Y45	Z45	X46	Y46	Z46	X47	Y47	Z47
																																																																																																																																														
205	2.04	14.21409	1647.69934	946.34985	23.82962	1640.45605	1078.31995	-116.96118	1590.05151	957.18671	-105.66277	1587.82019	1086.146	-110.881	1435.5061	1013.62848	-139.45691	1104.71118	1021.29071	-0.38178	1358.79517	1011.32892	39.69559	1182.92712	1009.32532	-181.65388	1264.09985	1096.1167	-61.1621	1387.55493	849.80701	-106.30048	1189.94543	784.55646	-137.32098	1081.44214	776.81635	-145.8596	931.74445	750.30487	-97.78527	807.56891	779.30066	-165.60988	814.32043	754.46387	-140.39116	726.81769	747.31989	-42.12566	1390.84583	1174.02771	-71.98649	1192.85547	1266.01343	-53.66046	1073.85547	1281.15784	-0.84133	967.42615	1291.70337	106.03843	865.51086	1249.06604	57.23246	843.93817	1290.06335	119.84527	787.81744	1286.81177	49.79824	952.09338	919.3689	32.22074	948.83673	1138.98523	-110.6589	976.13849	933.66431	-116.55103	977.26685	1102.72375	28.82455	643.06921	842.01776	65.74128	486.18338	863.75043	90.74748	230.88017	864.39478	129.59778	62.1402	902.77802	94.42296	45.62066	949.74951	277.96414	43.9216	909.50592	-74.62839	619.00409	1176.50317	-99.03019	494.13678	1157.245	-241.62108	263.70087	1148.63367	-323.90863	95.74048	1101.07568	-369.33417	83.04765	1056.07007	-183.78262	29.81167	1099.55432	-82.43258	1685.13123	1011.9422	NaN	NaN	NaN	NaN	NaN	NaN	NaN	NaN	NaN	NaN	NaN	NaN	NaN	NaN	NaN	NaN	NaN	NaN	NaN	NaN	NaN
206	2.05	20.5879	1648.86353	944.69116	30.03395	1641.59351	1076.6969	-110.5973	1591.10999	955.42798	-99.27283	1588.82813	1084.29395	-104.31546	1436.23242	1011.76685	-132.39668	1105.70227	1020.09442	6.13921	1359.94043	1009.67828	46.49411	1184.12427	1007.70526	-174.94978	1264.94507	1094.43445	-54.73399	1388.56311	848.13232	-98.87865	1190.67688	782.91644	-128.99582	1081.93616	775.02728	-137.0517	932.24451	748.73138	-88.70405	808.34778	778.4472	-156.44449	814.82507	752.97729	-130.83957	727.33813	746.12921	-35.70393	1391.94507	1172.39539	-65.57175	1193.79822	1264.01306	-47.32422	1074.68091	1278.99878	4.4427	967.66254	1289.86218	110.24921	864.48291	1247.70642	61.07891	843.46301	1288.46643	123.08733	786.68494	1285.70142	56.91294	953.56952	917.79401	39.44819	949.75616	1137.30615	-103.55355	977.53876	932.50696	-109.34624	978.27441	1101.4491	35.23335	644.31976	840.7702	71.34167	487.10187	862.56964	93.73578	231.42992	863.42242	130.3541	62.33219	902.63287	94.86185	45.96805	949.48297	278.62753	43.27705	909.36859	-67.47792	619.62695	1175.38721	-91.67327	494.8284	1156.44482	-237.07298	265.97018	1148.52588	-321.91971	99.16245	1101.60107	-367.54645	87.36349	1056.6449	-183.58998	29.75735	1099.62891	-76.20905	1686.172	1010.31146	NaN	NaN	NaN	NaN	NaN	NaN	NaN	NaN	NaN	NaN	NaN	NaN	NaN	NaN	NaN	NaN	NaN	NaN	NaN	NaN	NaN
207	2.06	26.90455	1650.19214	942.92383	36.31498	1642.95825	1075.01465	-104.42405	1592.49719	953.59326	-93.11906	1590.17798	1082.61108	-98.14792	1437.52051	1010.14355	-125.48155	1107.00317	1018.67908	12.54495	1361.29236	1008.03363	53.23795	1185.57458	1006.14594	-168.20598	1266.1167	1092.87134	-48.41479	1389.89539	846.50391	-91.44659	1191.69617	781.27954	-120.90144	1082.89783	773.33331	-127.95921	933.11548	746.97607	-79.49851	809.25867	777.51721	-146.8298	815.37646	751.43231	-121.00235	728.21161	744.88147	-29.24508	1393.34729	1170.71545	-59.22509	1194.90393	1261.7699	-40.90471	1075.83093	1276.77734	9.75941	968.18127	1287.9082	114.30192	863.58734	1246.27466	64.81961	843.21246	1286.95117	126.08389	785.84222	1284.57214	63.95385	955.21967	916.17767	46.44835	950.89984	1135.69348	-96.48062	979.12079	931.36456	-102.58225	979.65997	1100.18481	41.62179	645.72961	839.66211	76.35641	488.02344	861.63422	96.77835	232.23804	862.84814	131.15878	62.47995	902.5047	95.07295	46.22192	949.08521	279.12375	42.61408	910.24835	-59.99709	620.34833	1174.37195	-83.6795	495.47742	1155.57202	-232.48122	268.76746	1148.20007	-319.67792	102.91805	1102.11731	-365.61935	92.18485	1057.56824	-183.35027	29.71056	1099.63501	-69.88357	1687.5575	1008.547	NaN	NaN	NaN	NaN	NaN	NaN	NaN	NaN	NaN	NaN	NaN	NaN	NaN	NaN	NaN	NaN	NaN	NaN	NaN	NaN	NaN
208	2.07	33.2909	1651.7804	941.48773	42.59882	1644.46008	1073.36194	-97.98386	1594.08862	951.94659	-86.85861	1591.77588	1080.8938	-91.86377	1438.8269	1008.54468	-118.65881	1108.50989	1017.09503	19.19823	1362.9856	1006.33356	60.10274	1187.26929	1004.54541	-161.56273	1267.60657	1091.43909	-42.07219	1391.4104	844.90796	-83.93341	1192.97302	779.62476	-112.41235	1083.99451	771.56604	-118.45311	934.2193	745.38763	-69.70966	810.65387	776.4201	-136.76324	816.24176	749.92206	-110.63653	729.31439	743.54749	-22.7925	1395.0332	1169.01807	-52.66782	1196.60852	1259.95764	-34.55866	1077.26196	1274.54333	14.96665	968.99615	1285.94019	118.20991	862.85187	1244.79773	68.42831	843.27014	1285.44824	128.94725	785.09637	1283.30847	70.9184	956.95361	914.59412	53.40301	952.31415	1133.94849	-89.38208	980.71045	930.07855	-95.33202	980.95624	1098.58472	47.68116	646.9787	838.71094	80.88763	488.81805	860.8266	99.24834	232.82829	862.45087	131.64243	62.57822	902.57086	95.10365	46.38128	948.84644	279.31329	42.19046	911.35388	-52.36306	621.17108	1173.38257	-75.02322	496.12723	1154.70117	-226.95558	271.40869	1148.19678	-317.30975	107.17464	1102.8136	-363.04062	97.33495	1057.88428	-183.11043	29.73889	1099.62585	-63.54602	1689.12683	1006.84637	NaN	NaN	NaN	NaN	NaN	NaN	NaN	NaN	NaN	NaN	NaN	NaN	NaN	NaN	NaN	NaN	NaN	NaN	NaN	NaN	NaN
209	2.08	39.61047	1653.2146	939.73944	48.83713	1645.99768	1071.66223	-91.72623	1595.83325	950.17908	-80.67983	1593.60107	1079.14111	-85.31503	1440.23413	1006.66449	-111.80911	1110.14526	1015.45691	25.44498	1364.62866	1004.71289	67.0157	1189.07483	1002.90936	-154.88609	1269.20862	1090.1792	-35.71307	1393.13855	843.37097	-76.33487	1194.50073	777.91382	-103.98695	1085.3822	769.8241	-108.76035	935.46844	743.97205	-59.4073	812.32635	775.19495	-126.42393	817.43964	748.08362	-99.58525	730.53461	742.14075	-16.38539	1396.87854	1167.2478	-46.28679	1198.5542	1258.24829	-28.20191	1078.91699	1272.28833	20.12848	969.99396	1284.04871	121.94778	862.27271	1243.27466	71.97562	843.54456	1283.96484	131.64426	784.42352	1281.95972	77.86214	958.70673	913.02264	60.09693	953.95367	1132.31165	-82.3306	982.37195	928.5202	-88.32472	982.44861	1096.81543	53.27545	648.10175	837.76013	84.6968	489.26828	860.08704	101.19357	233.1174	862.26398	131.94164	62.61725	902.73071	95.01742	46.49805	948.784	279.34592	41.83797	912.38739	-44.52035	622.1355	1172.56104	-65.84473	496.80359	1154.08337	-221.32069	274.4881	1148.02759	-314.16006	111.5312	1102.85559	-359.89066	102.95098	1058.25671	-182.81918	29.76658	1099.54382	-57.1737	1690.83813	1005.13452	NaN	NaN	NaN	NaN	NaN	NaN	NaN	NaN	NaN	NaN	NaN	NaN	NaN	NaN	NaN	NaN	NaN	NaN	NaN	NaN	NaN
210	2.09	45.9542	1654.85413	937.87738	55.01391	1647.53735	1069.96326	-85.67616	1597.63599	948.21246	-74.88059	1595.32825	1077.65991	-79.19651	1441.70764	1005.21118	-104.99255	1111.79663	1013.62952	31.90624	1366.32593	1003.04803	73.84614	1190.88684	1001.37274	-148.03444	1270.89795	1088.77332	-29.40412	1394.97217	841.84363	-68.70186	1196.12744	776.20563	-95.48837	1086.79565	768.08325	-98.70347	936.85938	742.40088	-48.89699	813.97626	773.77765	-115.73578	818.80878	746.00836	-88.32031	731.94562	740.54865	-10.03292	1398.75342	1165.38965	-39.44249	1200.41907	1256.32043	-21.96069	1080.65344	1270.09521	25.28703	971.10077	1282.13867	125.75864	861.85565	1241.73608	75.56736	843.97699	1282.47083	134.20406	783.93964	1280.79175	84.85448	960.38159	911.59949	66.67047	955.62445	1130.65381	-75.08486	983.88995	926.83844	-81.57304	983.99219	1094.82104	58.29616	648.87512	836.83002	87.92165	489.53659	859.24713	102.65179	233.21831	861.97815	132.27812	62.46538	902.97723	94.94771	46.56411	948.71045	279.51239	41.58232	912.95819	-36.39451	623.16156	1171.91797	-56.44991	497.57269	1153.84155	-215.19389	277.61517	1147.99304	-310.74902	116.22611	1103.19128	-356.24594	108.82642	1058.41882	-182.48163	29.91364	1099.42786	-50.8378	1692.55078	1003.27753	NaN	NaN	NaN	NaN	NaN	NaN	NaN	NaN	NaN	NaN	NaN	NaN	NaN	NaN	NaN	NaN	NaN	NaN	NaN	NaN	NaN
